<svg width="780" height="1132" viewBox="0 0 780 1132" fill="none" xmlns="http://www.w3.org/2000/svg">
<g id="DENAH" clip-path="url(#clip0_2_114)">
<rect width="780" height="1132" fill="white"/>
<g id="Background">
<rect id="Rectangle 7" x="190" y="554.364" width="80" height="80" fill="#D9D9D9"/>
<rect id="Rectangle 6" x="31" y="499.364" width="45" height="285" fill="#D9D9D9"/>
<rect id="Rectangle 8" width="45" height="285" transform="matrix(1 0 0 -1 330 1072.36)" fill="#D9D9D9"/>
<rect id="Rectangle 18" width="45" height="105" transform="matrix(1 0 0 -1 708 121.364)" fill="#D9D9D9"/>
<rect id="Rectangle 20" width="30" height="235" transform="matrix(1 0 0 -1 633 251.364)" fill="#D9D9D9"/>
<rect id="Rectangle 21" width="115" height="30" transform="matrix(1 0 0 -1 638 346.364)" fill="#D9D9D9"/>
<rect id="Rectangle 19" width="45" height="105" transform="matrix(1 0 0 -1 708 261.364)" fill="#D9D9D9"/>
<rect id="Rectangle 9" x="249" y="1067.36" width="126" height="45" fill="#D9D9D9"/>
<circle id="Ellipse 7" cx="118" cy="529.364" r="24" fill="#D9D9D9"/>
<circle id="Ellipse 8" cx="118" cy="609.364" r="24" fill="#D9D9D9"/>
<circle id="Ellipse 9" cx="117" cy="689.364" r="24" fill="#D9D9D9"/>
<circle id="Ellipse 10" cx="118" cy="759.364" r="24" fill="#D9D9D9"/>
<circle id="Ellipse 11" cx="295" cy="1035.36" r="24" fill="#D9D9D9"/>
<circle id="Ellipse 15" cx="85" cy="1081.36" r="24" fill="#D9D9D9"/>
<circle id="Ellipse 16" cx="194" cy="1081.36" r="24" fill="#D9D9D9"/>
<circle id="Ellipse 12" cx="295" cy="975.364" r="24" fill="#D9D9D9"/>
<circle id="Ellipse 13" cx="295" cy="903.364" r="24" fill="#D9D9D9"/>
<circle id="Ellipse 14" cx="295" cy="835.364" r="24" fill="#D9D9D9"/>
<circle id="Ellipse 5" cx="228" cy="504.364" r="24" fill="#D9D9D9"/>
<circle id="Ellipse 6" cx="228" cy="698.364" r="24" fill="#D9D9D9"/>
<line id="Line 1" x1="30" y1="16.3629" x2="30.9908" y2="1112.36" stroke="black" stroke-width="2"/>
<line id="Line 2" x1="754" y1="16.3629" x2="754.991" y2="1112.36" stroke="black" stroke-width="2"/>
<line id="Line 3" x1="754" y1="16.3638" x2="29" y2="16.3638" stroke="black" stroke-width="2"/>
<line id="Line 4" x1="756" y1="1113.36" x2="29.9993" y2="1113.36" stroke="black" stroke-width="2"/>
<line id="Line 5" x1="321" y1="16.3638" x2="321" y2="325.364" stroke="black" stroke-width="2"/>
<path id="Line 7" d="M376 324.364L376 1112.36" stroke="black" stroke-width="2"/>
<line id="Line 6" x1="30" y1="325.364" x2="375" y2="325.364" stroke="black" stroke-width="2"/>
<line id="Line 11" x1="30.0029" y1="452.364" x2="376.003" y2="453.364" stroke="black" stroke-width="2"/>
<line id="Line 12" x1="663" y1="138.364" x2="754" y2="138.364" stroke="black" stroke-width="2"/>
<line id="Line 8" x1="30" y1="1012.36" x2="247" y2="1012.36" stroke="black" stroke-width="2"/>
<line id="Line 9" x1="248" y1="1012.36" x2="248" y2="1112.36" stroke="black" stroke-width="2"/>
<line id="Line 10" x1="142" y1="1012.36" x2="142" y2="1112.36" stroke="black" stroke-width="2"/>
<line id="Line 17" x1="289.5" y1="454.364" x2="289.5" y2="554.364" stroke="black"/>
<line id="Line 19" x1="550.5" y1="16.3638" x2="550.5" y2="116.364" stroke="black"/>
<line id="Line 15" x1="475.003" y1="767.199" x2="375.003" y2="767.361" stroke="black"/>
<line id="Line 18" x1="420.003" y1="302.2" x2="320.003" y2="302.362" stroke="black"/>
<rect id="Rectangle 22" x="31" y="326.364" width="344" height="39" fill="#D9D9D9"/>
<rect id="Rectangle 23" x="31" y="413.364" width="225" height="39" fill="#D9D9D9"/>
<line id="Line 20" x1="247.5" y1="929.364" x2="247.5" y2="1012.36" stroke="black"/>
<path id="Ellipse 18" d="M141.319 1012.35C140.443 999.185 142.818 986.002 148.24 973.939C153.661 961.876 161.967 951.294 172.443 943.103C182.919 934.912 195.252 929.356 208.382 926.915C221.512 924.473 235.045 925.218 247.819 929.085L247.577 929.864C234.931 926.035 221.533 925.298 208.535 927.716C195.536 930.133 183.327 935.633 172.955 943.742C162.584 951.851 154.361 962.327 148.994 974.27C143.626 986.212 141.275 999.263 142.143 1012.3L141.319 1012.35Z" fill="black"/>
<path id="Ellipse 20" d="M376.171 660.693C389.34 659.797 402.527 662.152 414.598 667.556C426.669 672.959 437.263 681.249 445.47 691.713C453.677 702.177 459.25 714.502 461.712 727.628C464.173 740.754 463.449 754.288 459.601 767.067L458.821 766.827C462.631 754.175 463.348 740.776 460.911 727.781C458.474 714.787 452.956 702.585 444.832 692.226C436.707 681.867 426.218 673.66 414.268 668.31C402.318 662.961 389.263 660.629 376.226 661.516L376.171 660.693Z" fill="black"/>
<path id="Ellipse 21" d="M366.016 453.524C367.207 474.807 359.911 495.702 345.692 511.731C331.473 527.759 311.462 537.645 289.948 539.27L289.885 538.458C311.183 536.849 330.994 527.062 345.072 511.193C359.149 495.325 366.372 474.639 365.192 453.569L366.016 453.524Z" fill="black"/>
<line id="Line 21" x1="141.5" y1="929.364" x2="141.5" y2="1012.36" stroke="black"/>
<path id="Ellipse 19" d="M35.3194 1012.35C34.4434 999.185 36.8182 986.002 42.2397 973.939C47.6611 961.876 55.9669 951.294 66.4431 943.103C76.9193 934.912 89.2523 929.356 102.382 926.915C115.512 924.473 129.045 925.218 141.819 929.085L141.577 929.864C128.931 926.035 115.533 925.298 102.535 927.716C89.5362 930.133 77.3265 935.633 66.9551 943.742C56.5837 951.851 48.3609 962.327 42.9937 974.27C37.6264 986.212 35.2754 999.263 36.1426 1012.3L35.3194 1012.35Z" fill="black"/>
<path id="Ellipse 22" d="M320.739 195.657C333.913 194.852 347.083 197.298 359.117 202.785C371.151 208.271 381.687 216.634 389.822 227.154C397.956 237.675 403.445 250.037 405.816 263.18C408.187 276.323 407.369 289.852 403.433 302.604L402.655 302.358C406.552 289.733 407.361 276.339 405.014 263.328C402.667 250.317 397.233 238.078 389.18 227.663C381.127 217.248 370.695 208.969 358.782 203.537C346.869 198.105 333.831 195.684 320.788 196.481L320.739 195.657Z" fill="black"/>
<path id="Ellipse 23" d="M549.936 99.0459C537.049 104.456 523.007 106.428 509.152 104.771C495.297 103.115 482.093 97.8855 470.806 89.5845C459.518 81.2836 450.524 70.1888 444.685 57.3622C438.846 44.5357 436.357 30.407 437.457 16.3287L438.27 16.3938C437.181 30.3313 439.645 44.3188 445.425 57.017C451.206 69.7153 460.11 80.6992 471.285 88.9171C482.459 97.135 495.531 102.312 509.247 103.952C522.964 105.592 536.866 103.64 549.623 98.2839L549.936 99.0459Z" fill="black"/>
<path id="WC" d="M62.169 1049.36L54.6776 1023.18H60.7244L65.0582 1041.37H65.2756L70.0568 1023.18H75.2344L80.0028 1041.41H80.233L84.5668 1023.18H90.6136L83.1222 1049.36H77.7273L72.7415 1032.25H72.5369L67.5639 1049.36H62.169ZM115.201 1032.35H109.601C109.499 1031.62 109.29 1030.98 108.975 1030.42C108.659 1029.85 108.255 1029.36 107.76 1028.96C107.266 1028.56 106.695 1028.25 106.047 1028.04C105.408 1027.83 104.713 1027.72 103.963 1027.72C102.608 1027.72 101.428 1028.06 100.422 1028.73C99.4165 1029.4 98.6367 1030.37 98.0827 1031.65C97.5288 1032.91 97.2518 1034.46 97.2518 1036.27C97.2518 1038.14 97.5288 1039.71 98.0827 1040.98C98.6452 1042.25 99.4293 1043.21 100.435 1043.85C101.441 1044.5 102.604 1044.83 103.925 1044.83C104.667 1044.83 105.353 1044.73 105.983 1044.53C106.623 1044.34 107.189 1044.05 107.684 1043.67C108.178 1043.29 108.587 1042.83 108.911 1042.28C109.243 1041.74 109.473 1041.11 109.601 1040.41L115.201 1040.44C115.056 1041.64 114.694 1042.8 114.114 1043.92C113.543 1045.03 112.772 1046.02 111.8 1046.9C110.837 1047.77 109.686 1048.46 108.348 1048.97C107.019 1049.47 105.515 1049.72 103.836 1049.72C101.5 1049.72 99.4123 1049.19 97.5714 1048.14C95.739 1047.08 94.2901 1045.55 93.2248 1043.55C92.168 1041.54 91.6396 1039.12 91.6396 1036.27C91.6396 1033.42 92.1765 1030.99 93.2504 1028.99C94.3242 1026.98 95.7816 1025.46 97.6225 1024.41C99.4634 1023.35 101.534 1022.82 103.836 1022.82C105.353 1022.82 106.759 1023.04 108.054 1023.46C109.358 1023.89 110.513 1024.51 111.519 1025.33C112.525 1026.14 113.343 1027.13 113.973 1028.31C114.613 1029.48 115.022 1030.83 115.201 1032.35Z" fill="black"/>
<path id="WC_2" d="M172.169 1049.36L164.678 1023.18H170.724L175.058 1041.37H175.276L180.057 1023.18H185.234L190.003 1041.41H190.233L194.567 1023.18H200.614L193.122 1049.36H187.727L182.741 1032.25H182.537L177.564 1049.36H172.169ZM225.201 1032.35H219.601C219.499 1031.62 219.29 1030.98 218.975 1030.42C218.659 1029.85 218.255 1029.36 217.76 1028.96C217.266 1028.56 216.695 1028.25 216.047 1028.04C215.408 1027.83 214.713 1027.72 213.963 1027.72C212.608 1027.72 211.428 1028.06 210.422 1028.73C209.417 1029.4 208.637 1030.37 208.083 1031.65C207.529 1032.91 207.252 1034.46 207.252 1036.27C207.252 1038.14 207.529 1039.71 208.083 1040.98C208.645 1042.25 209.429 1043.21 210.435 1043.85C211.441 1044.5 212.604 1044.83 213.925 1044.83C214.667 1044.83 215.353 1044.73 215.983 1044.53C216.623 1044.34 217.189 1044.05 217.684 1043.67C218.178 1043.29 218.587 1042.83 218.911 1042.28C219.243 1041.74 219.473 1041.11 219.601 1040.41L225.201 1040.44C225.056 1041.64 224.694 1042.8 224.114 1043.92C223.543 1045.03 222.772 1046.02 221.8 1046.9C220.837 1047.77 219.686 1048.46 218.348 1048.97C217.019 1049.47 215.515 1049.72 213.836 1049.72C211.5 1049.72 209.412 1049.19 207.571 1048.14C205.739 1047.08 204.29 1045.55 203.225 1043.55C202.168 1041.54 201.64 1039.12 201.64 1036.27C201.64 1033.42 202.176 1030.99 203.25 1028.99C204.324 1026.98 205.782 1025.46 207.623 1024.41C209.463 1023.35 211.534 1022.82 213.836 1022.82C215.353 1022.82 216.759 1023.04 218.054 1023.46C219.358 1023.89 220.513 1024.51 221.519 1025.33C222.525 1026.14 223.343 1027.13 223.973 1028.31C224.613 1029.48 225.022 1030.83 225.201 1032.35Z" fill="black"/>
<path id="STORAGE" d="M98.4787 384.712C98.3764 383.681 97.9375 382.879 97.1619 382.308C96.3864 381.737 95.3338 381.452 94.0043 381.452C93.1009 381.452 92.3381 381.58 91.7159 381.835C91.0938 382.083 90.6165 382.428 90.2841 382.871C89.9602 383.314 89.7983 383.817 89.7983 384.379C89.7813 384.848 89.8793 385.257 90.0923 385.607C90.3139 385.956 90.6165 386.259 91 386.514C91.3835 386.761 91.8267 386.979 92.3295 387.166C92.8324 387.345 93.3693 387.499 93.9403 387.627L96.2926 388.189C97.4347 388.445 98.483 388.786 99.4375 389.212C100.392 389.638 101.219 390.162 101.918 390.784C102.616 391.406 103.158 392.139 103.541 392.983C103.933 393.827 104.134 394.794 104.142 395.885C104.134 397.487 103.724 398.877 102.915 400.053C102.114 401.22 100.955 402.128 99.4375 402.776C97.929 403.415 96.1094 403.735 93.9787 403.735C91.8651 403.735 90.0241 403.411 88.456 402.763C86.8963 402.115 85.6776 401.156 84.7997 399.886C83.9304 398.608 83.4744 397.027 83.4318 395.144H88.7884C88.848 396.021 89.0994 396.754 89.5426 397.342C89.9943 397.922 90.5952 398.361 91.3452 398.659C92.1037 398.949 92.9602 399.094 93.9148 399.094C94.8523 399.094 95.6662 398.958 96.3565 398.685C97.0554 398.412 97.5966 398.033 97.9801 397.547C98.3636 397.061 98.5554 396.503 98.5554 395.872C98.5554 395.284 98.3807 394.79 98.0312 394.389C97.6903 393.989 97.1875 393.648 96.5227 393.367C95.8665 393.085 95.0611 392.83 94.1065 392.6L91.2557 391.884C89.0483 391.347 87.3054 390.507 86.027 389.365C84.7486 388.223 84.1136 386.685 84.1222 384.75C84.1136 383.165 84.5355 381.78 85.3878 380.595C86.2486 379.411 87.429 378.486 88.929 377.821C90.429 377.156 92.1335 376.824 94.0426 376.824C95.9858 376.824 97.6818 377.156 99.1307 377.821C100.588 378.486 101.722 379.411 102.531 380.595C103.341 381.78 103.759 383.152 103.784 384.712H98.4787ZM106.868 381.746V377.182H128.371V381.746H120.355V403.364H114.884V381.746H106.868ZM154.777 390.273C154.777 393.128 154.235 395.557 153.153 397.56C152.079 399.563 150.613 401.092 148.755 402.149C146.906 403.198 144.826 403.722 142.517 403.722C140.19 403.722 138.102 403.193 136.252 402.136C134.403 401.08 132.941 399.55 131.868 397.547C130.794 395.544 130.257 393.119 130.257 390.273C130.257 387.418 130.794 384.989 131.868 382.986C132.941 380.983 134.403 379.458 136.252 378.409C138.102 377.352 140.19 376.824 142.517 376.824C144.826 376.824 146.906 377.352 148.755 378.409C150.613 379.458 152.079 380.983 153.153 382.986C154.235 384.989 154.777 387.418 154.777 390.273ZM149.164 390.273C149.164 388.423 148.887 386.864 148.333 385.594C147.788 384.324 147.017 383.361 146.02 382.705C145.022 382.048 143.855 381.72 142.517 381.72C141.179 381.72 140.011 382.048 139.014 382.705C138.017 383.361 137.241 384.324 136.687 385.594C136.142 386.864 135.869 388.423 135.869 390.273C135.869 392.122 136.142 393.682 136.687 394.952C137.241 396.222 138.017 397.185 139.014 397.841C140.011 398.497 141.179 398.825 142.517 398.825C143.855 398.825 145.022 398.497 146.02 397.841C147.017 397.185 147.788 396.222 148.333 394.952C148.887 393.682 149.164 392.122 149.164 390.273ZM158.877 403.364V377.182H169.207C171.184 377.182 172.871 377.536 174.269 378.243C175.675 378.942 176.745 379.935 177.478 381.222C178.219 382.5 178.59 384.004 178.59 385.735C178.59 387.473 178.215 388.969 177.465 390.222C176.715 391.466 175.629 392.421 174.205 393.085C172.79 393.75 171.077 394.083 169.066 394.083H162.15V389.634H168.171C169.228 389.634 170.106 389.489 170.805 389.199C171.504 388.909 172.023 388.475 172.364 387.895C172.714 387.315 172.888 386.595 172.888 385.735C172.888 384.865 172.714 384.132 172.364 383.536C172.023 382.939 171.499 382.487 170.792 382.181C170.093 381.865 169.211 381.708 168.146 381.708H164.413V403.364H158.877ZM173.016 391.449L179.523 403.364H173.413L167.046 391.449H173.016ZM187.015 403.364H181.083L190.121 377.182H197.255L206.281 403.364H200.349L193.79 383.165H193.586L187.015 403.364ZM186.644 393.073H200.656V397.394H186.644V393.073ZM225.562 385.645C225.383 385.023 225.132 384.473 224.808 383.996C224.484 383.51 224.088 383.101 223.619 382.769C223.159 382.428 222.63 382.168 222.034 381.989C221.446 381.81 220.794 381.72 220.078 381.72C218.74 381.72 217.564 382.053 216.549 382.717C215.544 383.382 214.76 384.35 214.197 385.619C213.635 386.881 213.353 388.423 213.353 390.247C213.353 392.071 213.63 393.622 214.184 394.901C214.738 396.179 215.522 397.155 216.537 397.828C217.551 398.493 218.748 398.825 220.129 398.825C221.382 398.825 222.451 398.604 223.338 398.161C224.233 397.709 224.914 397.074 225.383 396.256C225.86 395.438 226.099 394.47 226.099 393.354L227.224 393.52H220.474V389.352H231.43V392.651C231.43 394.952 230.944 396.929 229.973 398.583C229.001 400.227 227.663 401.497 225.958 402.392C224.254 403.279 222.302 403.722 220.103 403.722C217.649 403.722 215.493 403.181 213.635 402.098C211.777 401.007 210.328 399.46 209.288 397.458C208.257 395.446 207.741 393.06 207.741 390.298C207.741 388.176 208.048 386.284 208.662 384.622C209.284 382.952 210.153 381.537 211.27 380.378C212.386 379.219 213.686 378.337 215.169 377.732C216.652 377.127 218.258 376.824 219.988 376.824C221.471 376.824 222.852 377.041 224.13 377.476C225.409 377.902 226.542 378.507 227.531 379.291C228.528 380.075 229.342 381.009 229.973 382.091C230.603 383.165 231.008 384.35 231.187 385.645H225.562ZM235.588 403.364V377.182H253.23V381.746H241.124V387.985H252.322V392.548H241.124V398.8H253.281V403.364H235.588Z" fill="black"/>
<path id="COUNTER" d="M733.692 55.7208L733.664 50.1215C734.388 50.0155 735.03 49.8034 735.591 49.4853C736.161 49.167 736.644 48.7597 737.042 48.2634C737.441 47.767 737.744 47.1945 737.954 46.5457C738.164 45.9054 738.267 45.2103 738.263 44.4603C738.256 43.1052 737.914 41.9265 737.235 40.9242C736.565 39.9219 735.59 39.1471 734.309 38.5996C733.036 38.0521 731.492 37.7829 729.677 37.7921C727.81 37.8016 726.243 38.0865 724.976 38.647C723.709 39.2159 722.755 40.0049 722.112 41.0138C721.469 42.0228 721.151 43.1878 721.158 44.5088C721.162 45.2502 721.263 45.9358 721.463 46.5655C721.662 47.2037 721.95 47.769 722.328 48.2614C722.714 48.7538 723.18 49.1605 723.727 49.4816C724.275 49.8112 724.898 50.0381 725.597 50.1624L725.6 55.7619C724.398 55.6231 723.237 55.2668 722.118 54.6929C721.007 54.1276 720.01 53.3613 719.127 52.3942C718.253 51.4355 717.557 50.2885 717.039 48.953C716.529 47.6261 716.27 46.1231 716.261 44.4441C716.25 42.1089 716.767 40.0182 717.815 38.172C718.862 36.3342 720.385 34.8776 722.382 33.8021C724.38 32.7351 726.802 32.1944 729.648 32.18C732.503 32.1655 734.935 32.6901 736.943 33.7538C738.951 34.8174 740.484 36.2671 741.542 38.1026C742.608 39.9381 743.147 42.0065 743.159 44.3076C743.167 45.8246 742.961 47.2319 742.541 48.5295C742.122 49.8356 741.505 50.9936 740.692 52.0034C739.888 53.0132 738.899 53.8364 737.726 54.4731C736.553 55.1182 735.209 55.5342 733.692 55.7208ZM729.91 83.7695C727.055 83.784 724.623 83.2552 722.615 82.183C720.607 81.1193 719.07 79.6612 718.003 77.8086C716.946 75.9645 716.411 73.8876 716.399 71.578C716.387 69.2513 716.905 67.1606 717.953 65.3058C719 63.4511 720.522 61.9817 722.52 60.8977C724.517 59.8136 726.939 59.2644 729.786 59.2499C732.641 59.2354 735.072 59.76 737.081 60.8237C739.089 61.8874 740.622 63.3413 741.68 65.1854C742.746 67.0294 743.285 69.1148 743.297 71.4414C743.308 73.7511 742.79 75.8333 741.743 77.688C740.704 79.5513 739.186 81.0249 737.189 82.109C735.191 83.2015 732.765 83.755 729.91 83.7695ZM729.882 78.1574C731.731 78.148 733.289 77.8631 734.556 77.3027C735.823 76.7508 736.783 75.9746 737.434 74.9741C738.085 73.9736 738.407 72.8044 738.4 71.4663C738.394 70.1283 738.06 68.9623 737.398 67.9685C736.737 66.9747 735.77 66.204 734.497 65.6565C733.225 65.1175 731.664 64.8527 729.814 64.8621C727.965 64.8715 726.406 65.1521 725.139 65.704C723.872 66.2644 722.913 67.0449 722.262 68.0454C721.611 69.0458 721.289 70.2151 721.295 71.5532C721.302 72.8912 721.636 74.0571 722.298 75.051C722.959 76.0448 723.926 76.8112 725.199 77.3502C726.471 77.8977 728.032 78.1668 729.882 78.1574ZM743.104 103.975L743.132 109.511L726.129 109.597C724.22 109.607 722.547 109.159 721.111 108.254C719.675 107.358 718.552 106.098 717.742 104.475C716.942 102.851 716.536 100.957 716.525 98.7919C716.514 96.6186 716.9 94.716 717.685 93.0842C718.477 91.4523 719.587 90.181 721.015 89.2704C722.442 88.3597 724.11 87.8995 726.019 87.8898L743.022 87.8035L743.05 93.3389L726.52 93.4229C725.523 93.4279 724.638 93.6498 723.864 94.0883C723.091 94.5355 722.485 95.1607 722.046 95.9641C721.607 96.7675 721.39 97.7018 721.395 98.7671C721.401 99.841 721.627 100.773 722.074 101.563C722.522 102.362 723.134 102.977 723.912 103.408C724.69 103.847 725.577 104.064 726.574 104.059L743.104 103.975ZM743.266 135.964L717.085 136.097L717.06 131.315L733.481 119.841L733.48 119.65L717.002 119.733L716.974 114.198L743.155 114.065L743.18 118.923L726.771 130.307L726.773 130.537L743.238 130.454L743.266 135.964ZM738.721 139.563L743.284 139.54L743.394 161.043L738.83 161.066L738.789 153.05L717.171 153.16L717.144 147.689L738.761 147.579L738.721 139.563ZM717.23 164.717L743.412 164.584L743.501 182.226L738.937 182.249L738.876 170.142L732.637 170.174L732.694 181.373L728.13 181.396L728.073 170.197L721.822 170.229L721.884 182.386L717.32 182.41L717.23 164.717ZM717.342 186.759L743.524 186.626L743.576 196.956C743.586 198.933 743.241 200.622 742.541 202.024C741.849 203.433 740.861 204.508 739.578 205.248C738.304 205.996 736.801 206.374 735.071 206.383C733.333 206.392 731.835 206.024 730.578 205.28C729.33 204.537 728.37 203.455 727.698 202.035C727.026 200.624 726.685 198.912 726.675 196.901L726.64 189.985L731.089 189.962L731.119 195.984C731.125 197.04 731.274 197.917 731.567 198.615C731.86 199.312 732.298 199.83 732.879 200.168C733.46 200.514 734.181 200.685 735.042 200.681C735.912 200.677 736.644 200.498 737.238 200.146C737.833 199.802 738.282 199.275 738.585 198.566C738.897 197.866 739.05 196.983 739.045 195.918L739.026 192.185L717.37 192.295L717.342 186.759ZM729.328 200.838L717.447 207.405L717.416 201.295L729.298 194.868L729.328 200.838Z" fill="black"/>
</g>
<g id="Seat-r2">
<rect id="Rectangle 3" x="674" y="703.364" width="80" height="80" fill="#3DAE4B"/>
<circle id="Ellipse 1" cx="712" cy="658.364" r="24" fill="#3DAE4B"/>
<circle id="Ellipse 2" cx="712" cy="824.364" r="24" fill="#3DAE4B"/>
</g>
<g id="Seat-r4">
<rect id="Rectangle 4" x="443" y="962.364" width="93" height="93" fill="#3DAE4B"/>
<rect id="Rectangle 10" width="45" height="165" transform="matrix(1 0 0 -1 376 1114.36)" fill="#3DAE4B"/>
<rect id="Rectangle 12" width="165" height="45" transform="matrix(1 0 0 -1 379 1114.36)" fill="#3DAE4B"/>
</g>
<g id="Seat-r5">
<rect id="Rectangle 5" x="601" y="962.364" width="93" height="93" fill="#3DAE4B"/>
<rect id="Rectangle 13" width="165" height="45" transform="matrix(1 0 0 -1 588 1114.36)" fill="#3DAE4B"/>
<rect id="Rectangle 11" width="45" height="165" transform="matrix(1 0 0 -1 709 1114.36)" fill="#3DAE4B"/>
</g>
<g id="Seat-r3">
<rect id="Rectangle 2" x="376" y="450.364" width="80" height="80" fill="#3DAE4B"/>
<circle id="Ellipse 3" cx="417" cy="580.364" r="24" fill="#3DAE4B"/>
<circle id="Ellipse 4" cx="417" cy="399.364" r="24" fill="#3DAE4B"/>
</g>
<g id="Seat-r1">
<rect id="Rectangle 1" x="88" y="87.3638" width="164" height="164" fill="#3DAE4B"/>
<rect id="Rectangle 14" x="30" y="16.3638" width="45" height="309" fill="#3DAE4B"/>
<rect id="Rectangle 15" width="175" height="45" transform="matrix(1 0 0 -1 75 61.3638)" fill="#3DAE4B"/>
<rect id="Rectangle 16" width="175" height="45" transform="matrix(1 0 0 -1 75 325.364)" fill="#3DAE4B"/>
<rect id="Rectangle 17" x="290" y="71.3638" width="30" height="95" fill="#3DAE4B"/>
</g>
</g>
<defs>
<clipPath id="clip0_2_114">
<rect width="780" height="1132" fill="white"/>
</clipPath>
</defs>
</svg>
